<?xml version="1.0" encoding="UTF-8"?>
<svg id="Layer_1" data-name="Layer 1" xmlns="http://www.w3.org/2000/svg" viewBox="0 0 600 600">
  <defs>
    <style>
      .cls-1 {
        fill: #0448e7;
      }

      .cls-2 {
        fill: #0d2344;
      }

      .cls-3 {
        fill: #fff;
      }

      .cls-4 {
        fill: #5aaf08;
      }
    </style>
  </defs>
  <path class="cls-3" d="M290.53,65.59L44.04,287.05v129.02s232.37,289.5,501.33,1.93l1.93-136.73L290.53,65.59Z"/>
  <g>
    <path class="cls-1" d="M481.84,178.94v-41.68c0-.84,3.43-5.24,4.58-6.03,5.4-3.77,35.44-4.53,38.36,2.61.86,2.1,2.49,17.03,2.52,20.1.17,17.26-4.29,41.92-1.43,59.02.95,5.66,11.51,18.46,14.71,26.2,15.39,37.15,5.27,89.4,7.27,129.3-12.14,19.16-33.62,29.45-51.62,42.34l8.41-34.02c-6.36-44.49,16.48-107.74-20.57-140.2-35.04-30.7-77.98-60.34-115.09-89.5-16.61-13.06-33.04-28.58-50.12-40.81-18.5-13.26-29.27-15.79-49.06-2.21-56.46,38.74-108.93,93.33-166.03,132.52-8.8,7.87-15.02,19.55-17.48,31.02,2.4,37.28-3.18,78.43-.05,115.23.91,10.76,4.85,21.97,10.66,31-3.51,2.88-52.62-34.36-53.89-43.85,3.11-62.6-18.08-122.43,34.17-169.08,54.64-48.8,120.37-90.89,175.94-139.27,24.88-15.6,51.67-16.36,77.03-1.53l151.67,118.84Z"/>
    <path class="cls-2" d="M40.85,398.69l30.44,24.86c6.4,6.11,22.72,10.03,28.21,14.99.62.56,10.03,12.45,10.38,13.22,1.02,2.27-1.31,4.84-.69,5.79,1.13,1.73,30.45,19.97,34.68,22.24,34.02,18.3,70.05,25.31,108.36,28.03,2.38-1.43-1.22-2.11-2.2-2.32-39.96-8.85-81.97-23-109.16-55.27,16,1.72,31.77,5.68,47.75,7.55,78.21,9.16,157.23,4.17,235.64,9.12-5.36,9.05-16.54,15.42-25.73,20.48-12.72,7-28.06,13.96-42.46,15.9-.26,2.7,5.11,1.6,6.78,1.48,38.97-2.93,84.31-21.14,114.44-45.43-8.63,2.27-20.75,4.74-29.57,3.03-3.89-.75-3.67-4.28-6.19-5.94-2.33-1.54-6.54-.5-6.67-3.15,41.29-9.49,82.1-26.34,112.9-56.08,1.24,10.56-2.87,22.81-6.54,32.86-59.79,163.71-398.95,167.97-481.91,25.18-10.23-17.6-16.61-36.11-18.47-56.53Z"/>
    <path class="cls-1" d="M428.81,435.04c-17.32,2.71-34.76,6.33-52.31,7.57-49.85,3.52-107.69,2.11-157.58-1.52-20.45-1.49-41.09-4.88-61.4-7.58,5.63-26.94,31.53-49.02,58.51-52.86,37.4-5.32,90.34-2.03,128.59-.1,8.72.44,18.44-1.03,26.98.3,25.76,4.02,55.07,26.75,57.2,54.19Z"/>
    <path class="cls-2" d="M190.87,333.52l11.82-5.6c53.91.06,117.38-6.81,170.85-2.03,8.94.8,14.54,4.79,21.91,9.15v-25.01c0-9.06,14.44-14.84,22.66-12.05,3.22,1.09,10.68,9.16,10.68,12.05v91.69c-15.19-15.64-29.11-34.1-50.93-40.75-50.12-.38-106.06-5.22-156-1.75-16.36,1.14-31.01,8.32-43.11,19.02l-19.71,23.48v-94.72c0-4.28,10.93-10.05,15.84-9.93,5.09.12,15.98,6.67,15.98,11.44v25.01Z"/>
    <path class="cls-4" d="M489.42,104.68c-2.4-39.56,31.71-65.96,69.72-62.14.39,20.68-7.78,39.71-24.39,52.16-5.03,3.77-17.39,9.98-23.36,9.98h-21.97Z"/>
    <path class="cls-4" d="M472.76,118.33c-31.08,2.89-55.94-20.12-53.06-51.54,31.28-2.48,54.86,20.01,53.06,51.54Z"/>
    <path class="cls-1" d="M246.94,249.41l2.56-1.99c11.42-.86,27.19-5.57,36.85,1.99v33.34c-8.83,5.98-30.42,6.02-39.4,0v-33.34Z"/>
    <path class="cls-1" d="M299.99,250.92c.81-4.79,7.38-5.05,11.31-5.36,8.13-.63,21.95-1.62,28.09,3.85v33.34c-4.39,5.15-39.4,5.6-39.4,0,1.14-9.7-1.56-22.61,0-31.82Z"/>
    <path class="cls-1" d="M284.83,194.09c-.49,1.49,1.52,3.29,1.52,3.79v31.82c0,.27-3.52,3.79-3.79,3.79h-31.82c-.27,0-3.79-3.52-3.79-3.79v-31.82c0-.27,3.52-3.79,3.79-3.79h34.1Z"/>
    <path class="cls-1" d="M303.77,194.09h31.82c.27,0,3.79,3.52,3.79,3.79v31.82c0,.27-3.52,3.79-3.79,3.79h-31.82c-.27,0-3.79-3.52-3.79-3.79v-31.82c0-.49,3.11-2.77,3.79-3.79Z"/>
  </g>
</svg>